<?xml version="1.0" encoding="UTF-8" standalone="no"?><!DOCTYPE svg PUBLIC "-//W3C//DTD SVG 1.1//EN" "http://www.w3.org/Graphics/SVG/1.1/DTD/svg11.dtd"><svg width="100%" height="100%" viewBox="0 0 379 188" version="1.1" xmlns="http://www.w3.org/2000/svg" xmlns:xlink="http://www.w3.org/1999/xlink" xml:space="preserve" xmlns:serif="http://www.serif.com/" style="fill-rule:evenodd;clip-rule:evenodd;stroke-linejoin:round;stroke-miterlimit:5;"><g><rect x="208.62" y="51.845" width="11.331" height="74.751" style="fill:#fff;fill-rule:nonzero;"/><path d="M262.658,121.879l-0.205,0c-0.991,1.812 -2.529,3.145 -4.614,3.999c-2.051,0.889 -4.888,1.333 -8.511,1.333c-5.947,-0.068 -10.527,-1.64 -13.74,-4.717c-3.384,-3.007 -5.076,-6.853 -5.076,-11.535c0,-4.478 1.47,-8.186 4.409,-11.126c2.94,-3.008 7.246,-4.546 12.92,-4.614l14.817,0l0,-5.588c0.068,-4.683 -3.572,-6.956 -10.92,-6.819c-2.666,0 -4.768,0.273 -6.306,0.82c-1.607,0.65 -2.872,1.743 -3.794,3.281l-8.409,-6.408c4.068,-5.332 10.066,-7.93 17.996,-7.793c6.699,-0.069 12.048,1.196 16.047,3.794c3.999,2.666 6.033,7.246 6.101,13.74l0,36.35l-10.715,0l0,-4.717Zm0,-17.842l-12.817,0c-6.221,0.137 -9.297,2.273 -9.229,6.409c0,1.812 0.803,3.35 2.41,4.614c1.538,1.402 4.084,2.102 7.639,2.102c4.478,0.069 7.639,-0.461 9.485,-1.589c1.675,-1.128 2.512,-3.691 2.512,-7.69l0,-3.846Z" style="fill:#fff;fill-rule:nonzero;"/><path d="M288.806,110.344c4.34,4.545 9.946,6.818 16.816,6.818c3.076,0 5.588,-0.598 7.537,-1.794c1.948,-1.196 2.922,-2.871 2.922,-5.024c0,-1.915 -0.581,-3.248 -1.743,-3.999c-1.197,-0.787 -2.786,-1.214 -4.768,-1.282l-9.434,-0.821c-4.477,-0.41 -8.118,-1.914 -10.92,-4.511c-2.871,-2.53 -4.341,-6.067 -4.409,-10.613c0.068,-5.469 1.999,-9.57 5.793,-12.305c3.691,-2.734 8.374,-4.101 14.048,-4.101c2.461,0 4.665,0.154 6.614,0.461c1.948,0.342 3.776,0.82 5.485,1.436c3.282,1.333 6.221,3.127 8.819,5.383l-6.614,7.742c-2.051,-1.47 -4.221,-2.683 -6.511,-3.64c-2.256,-0.855 -4.854,-1.282 -7.793,-1.282c-3.35,0 -5.691,0.598 -7.024,1.794c-1.401,1.197 -2.102,2.735 -2.102,4.615c-0.069,1.196 0.461,2.238 1.589,3.127c1.026,0.991 2.837,1.623 5.435,1.897l8.818,0.666c5.537,0.411 9.536,2.085 11.997,5.025c2.29,2.871 3.435,6.511 3.435,10.92c-0.068,5.161 -2.17,9.143 -6.306,11.946c-4.101,2.871 -9.348,4.341 -15.74,4.409c-8.681,0 -16.491,-3.178 -23.43,-9.536l7.486,-7.331Z" style="fill:#fff;fill-rule:nonzero;"/><path d="M334.999,99.936c0,-5.606 0.462,-9.912 1.385,-12.92c0.957,-2.94 2.426,-5.418 4.409,-7.434c1.47,-1.778 3.52,-3.367 6.152,-4.768c2.598,-1.333 5.93,-2.034 9.998,-2.102c4.204,0.068 7.605,0.769 10.202,2.102c2.564,1.401 4.546,2.99 5.948,4.768c2.119,2.016 3.623,4.494 4.511,7.434c0.855,3.008 1.282,7.314 1.282,12.92c0,5.605 -0.427,9.878 -1.282,12.817c-0.888,2.94 -2.392,5.486 -4.511,7.639c-0.684,0.787 -1.521,1.556 -2.513,2.308c-0.888,0.854 -2.033,1.589 -3.435,2.204c-2.597,1.47 -5.998,2.239 -10.202,2.307c-4.068,-0.068 -7.4,-0.837 -9.998,-2.307c-2.632,-1.333 -4.682,-2.837 -6.152,-4.512c-1.983,-2.153 -3.452,-4.699 -4.409,-7.639c-0.923,-2.939 -1.385,-7.212 -1.385,-12.817Zm33.172,0.102c0,-3.794 -0.171,-6.562 -0.513,-8.305c-0.342,-1.675 -1.042,-3.145 -2.102,-4.409c-0.786,-1.197 -1.948,-2.137 -3.486,-2.82c-1.47,-0.718 -3.179,-1.077 -5.127,-1.077c-1.812,0 -3.487,0.359 -5.025,1.077c-1.469,0.683 -2.666,1.623 -3.589,2.82c-0.922,1.264 -1.589,2.734 -1.999,4.409c-0.41,1.743 -0.615,4.477 -0.615,8.203c0,3.691 0.205,6.391 0.615,8.1c0.41,1.744 1.077,3.282 1.999,4.615c0.923,1.025 2.12,1.931 3.589,2.717c1.538,0.752 3.213,1.128 5.025,1.128c1.948,0 3.657,-0.376 5.127,-1.128c1.538,-0.786 2.7,-1.692 3.486,-2.717c1.06,-1.333 1.76,-2.871 2.102,-4.615c0.342,-1.709 0.513,-4.375 0.513,-7.998Z" style="fill:#fff;fill-rule:nonzero;"/><path d="M168.054,40.474c3.296,2.07 5.352,5.555 5.5,9.526l0,87.5c-0.145,3.889 -2.135,7.412 -5.5,9.526l-70.277,40.575l-0.174,-25.303l53.951,-31.149l0,-74.798l-53.951,-31.149l0,-25.202c25.259,14.583 45.192,25.89 70.451,40.474Z" style="fill:#fff;"/><path d="M5.5,40.474c-3.295,2.07 -5.351,5.555 -5.5,9.526l0,87.5c0.146,3.889 2.135,7.412 5.5,9.526l70.277,40.575l0.175,-25.303l-53.952,-31.149l0,-74.798l53.952,-31.149l0,-25.202c-25.259,14.583 -45.193,25.89 -70.452,40.474Z" style="fill:#fff;"/><path d="M44.022,68.75l43.302,25l43.301,-25" style="fill:none;stroke:#fff;stroke-opacity:0.54;stroke-width:11px;"/><path d="M44.022,94.024l43.302,25l43.301,-25" style="fill:none;stroke:#fff;stroke-opacity:0.54;stroke-width:11px;"/><path d="M44.022,117.988l43.302,25l43.301,-25" style="fill:none;stroke:#fff;stroke-opacity:0.54;stroke-width:11px;"/></g></svg>