<svg data-name="Layer 1" xmlns="http://www.w3.org/2000/svg" viewBox="0 0 386.85 185.68">
  <g>
    <path d="M216,489.24c0-6.9.16-13.56-.07-20.2-.11-3.11,1-4.75,3.69-6.25,15.34-8.7,30.52-17.7,45.9-26.32,3.35-1.87,4.58-3.88,4.55-7.76q-.31-32.22,0-64.44c0-3.79-1-5.94-4.41-7.85-15.4-8.61-30.56-17.63-45.92-26.3-2.88-1.62-3.93-3.42-3.8-6.67.26-6.59.08-13.2.08-19.85,2.31-.09,3.56,1.15,4.95,1.94,20.79,11.91,41.51,23.95,62.39,35.71,6,3.39,8.77,7.9,8.71,14.89q-.3,40.47,0,80.93c0,6.54-2.45,10.93-8.16,14.18-21.13,12-42.11,24.25-63.16,36.38C219.46,488.35,218.33,489.48,216,489.24Z" transform="translate(-118.21 -303.59)" style="fill: #313131"/>
    <path d="M194.21,489.25c-2.48.11-3.72-1.14-5.12-1.94C168.6,475.52,148.22,463.54,127.6,452c-6.59-3.7-9.46-8.53-9.39-16.08q.35-39.46,0-79c-.06-7.52,2.72-12.38,9.36-16.08,20.66-11.49,41.05-23.44,61.57-35.19,1.4-.81,2.65-2,5-1.95,0,7.62.06,15.21,0,22.8,0,2.25-2.25,2.7-3.76,3.58-15.12,8.77-30.21,17.61-45.45,26.15-3.53,2-4.75,4.22-4.72,8.23q.3,32,0,64c0,4.1,1.4,6.21,4.85,8.15C160,445,174.72,453.8,189.7,462.15c3.6,2,4.78,4.33,4.59,8.28C194,476.68,194.21,483,194.21,489.25Z" transform="translate(-118.21 -303.59)" style="fill: #313131"/>
    <path d="M206.35,412.93c-2.1.05-3.84-1-5.58-1.95-13-7.2-25.94-14.36-38.84-21.64-6.36-3.58-6.33-8.27.06-11.88,13-7.36,26.2-14.57,39.23-22a9.16,9.16,0,0,1,9.87,0c12.9,7.29,25.91,14.39,38.8,21.71,7.07,4,7,8.41,0,12.38C236.92,396.89,224,404.08,211,411.3A10,10,0,0,1,206.35,412.93Zm32.06-29.51c-10.79-6-20.37-11.31-29.91-16.68-2.06-1.16-3.8-.57-5.62.46-5.22,2.94-10.5,5.77-15.67,8.79-4.1,2.39-8.56,4.23-12.86,7.7l30.07,16.65a3.24,3.24,0,0,0,3.33.11Z" transform="translate(-118.21 -303.59)" style="fill: #8a8a8a;opacity: 0.6"/>
    <path d="M367.59,389.66c-2.67-2.17-5.47-3.68-7.5-6.1,6.55-10.68,28.27-8.78,34.61-3.06,4.1,3.69,5,8.51,5.11,13.57.16,7.65.05,15.3.05,22.95v12c-3.45,1.37-6.75.5-9.78.71-1.65-.93-.53-2.64-1.5-3.66-6.3,5.23-13.5,5-20.7,2.85-7.36-2.2-11.47-8.88-10.84-16.52.59-7.29,5.71-12.42,13.52-13.71,5.92-1,11.93,0,18.23-.76.26-3.86,1.23-7.72-2.68-10.38C381.93,384.74,373.08,385.72,367.59,389.66Zm21,17.58c-5.19-.12-10.43-.57-15.67.38-3.24.59-5.72,2.22-5.73,5.81s2.49,5.47,5.51,6.21a24.93,24.93,0,0,0,11.33-.09,5.49,5.49,0,0,0,4.68-5.08C388.94,412.2,389.4,409.92,388.54,407.24Z" transform="translate(-118.21 -303.59)"/>
    <path d="M505,403.05c0,1.83.06,3.66,0,5.48-.51,12.93-8.92,21.48-21.26,21.64-12.57.16-20.92-7.84-22-20.91a75.58,75.58,0,0,1,.15-13.95c1.18-11.7,9.62-19.34,21.38-19.37,12,0,20.56,7.65,21.64,19.62.22,2.48,0,5,0,7.48Zm-10.49,0c-.15-2.29-.27-4.45-.45-6.6-.5-5.69-3.95-9.22-9.44-9.69-6-.52-10.32,2.19-11.61,7.76a37,37,0,0,0,.07,17.28,10.72,10.72,0,0,0,21-1.94C494.29,407.56,494.39,405.23,494.54,403.06Z" transform="translate(-118.21 -303.59)"/>
    <path d="M451.58,383.56l-6.19,7.23c-4.77-2.71-9.29-5.26-14.73-4.79a14.08,14.08,0,0,0-4.87.89c-2.33,1.08-3.78,2.81-3.71,5.4.07,2.83,2.2,4.14,4.55,4.53,3.93.65,7.94.84,11.9,1.28,9.85,1.08,14.65,6.44,14.54,16.19-.07,6.65-3.81,10.78-9.45,13.45-11.22,5.33-26.61,2.18-35.34-7.14l6.66-7c5.51,4.61,11.46,7.1,18.46,6.54a13.81,13.81,0,0,0,5.28-1.29,5.77,5.77,0,0,0,3.48-6.5c-.42-2.93-2.7-3.67-5-4-4.78-.62-9.63-.58-14.34-1.85-9.61-2.58-14.1-11.42-10.32-20.6,2.15-5.22,6.47-7.79,11.72-9.16C434,374.16,445.26,376.89,451.58,383.56Z" transform="translate(-118.21 -303.59)"/>
    <path d="M205.71,439a8.53,8.53,0,0,1-4.71-1.43c-13.41-7.73-26.84-15.42-40.21-23.23-3.94-2.31-4.92-5.82-2.64-8.66,2.55-3.19,5.53-2.31,8.48-.61,11,6.31,22.06,12.41,32.81,19.06,4.42,2.73,7.79,2.68,12.18,0,10.33-6.39,21-12.25,31.53-18.29a21.3,21.3,0,0,1,4-1.93,4.77,4.77,0,0,1,6,2.24,5.12,5.12,0,0,1-.71,6.45,13.12,13.12,0,0,1-3.2,2.34q-19,11-38,22C209.51,437.86,207.81,439,205.71,439Z" transform="translate(-118.21 -303.59)" style="fill: #8a8a8a;opacity: 0.6"/>
    <path d="M335.28,355.15h10.6V429.4c-3.55.73-6.94.39-10.6.25Z" transform="translate(-118.21 -303.59)"/>
  </g>
</svg>
